<svg width="27" height="26" viewBox="0 0 27 26" fill="none" xmlns="http://www.w3.org/2000/svg">
<g clip-path="url(#clip0)">
<path d="M0.5 17.3316H26.5V26H0.5V17.3316Z" fill="#1EB53A"/>
<path d="M0.5 0H26.5V8.66836H0.5V0Z" fill="#0099B5"/>
<path d="M0.5 8.31797H26.5V17.682H0.5V8.31797Z" fill="#CE1126"/>
<path d="M0.5 8.83594H26.5V17.1641H0.5V8.83594Z" fill="white"/>
<path d="M7.78203 7.27695C9.50404 7.27695 10.9 5.88099 10.9 4.15898C10.9 2.43698 9.50404 1.04102 7.78203 1.04102C6.06002 1.04102 4.66406 2.43698 4.66406 4.15898C4.66406 5.88099 6.06002 7.27695 7.78203 7.27695Z" fill="white"/>
<path d="M8.81798 7.27695C10.54 7.27695 11.936 5.88099 11.936 4.15898C11.936 2.43698 10.54 1.04102 8.81798 1.04102C7.09597 1.04102 5.70001 2.43698 5.70001 4.15898C5.70001 5.88099 7.09597 7.27695 8.81798 7.27695Z" fill="#0099B5"/>
<path d="M14.6426 6.02835L14.445 6.62115L14.7466 6.72515" fill="white"/>
</g>
<defs>
<clipPath id="clip0">
<rect x="0.5" width="26" height="26" rx="13" fill="white"/>
</clipPath>
</defs>
</svg>
