<svg width="73" height="86" viewBox="0 0 73 86" fill="none" xmlns="http://www.w3.org/2000/svg">
<path d="M67.078 0.0249357C67.078 0.0249357 69.7396 -0.354834 71.0696 1.83005C72.3996 4.01659 72.5903 9.43359 72.5903 9.43359H40.4697L67.078 0.0249357Z" fill="#CDCCCA"/>
<path d="M67.4587 85.5525H6.54489C6.54489 85.5525 11.8666 81.3718 11.4868 64.455C10.8029 34.0408 -1.21811 20.6092 1.41395 6.58257C2.26719 2.02044 5.78374 0.0246353 5.78374 0.0246353H67.079C67.079 0.0246353 63.7548 1.73441 63.0873 6.4856C61.08 20.8296 70.025 34.5209 71.8318 65.8803C72.2543 73.2554 73.4264 79.593 71.4503 83.0816C69.8359 85.9323 67.4587 85.5525 67.4587 85.5525Z" fill="#F2F2F2"/>
<path d="M68.4105 85.5657C68.4105 85.5657 65.4645 85.5295 63.5624 83.8181C61.0339 81.5428 60.6163 79.5765 60.6163 79.5765H0.09375C0.09375 79.5765 1.19856 82.5045 2.83928 83.6767C5.33159 85.4572 7.64965 85.5657 7.64965 85.5657H68.4105Z" fill="#E0E0E0"/>
<path d="M52.3038 14.0892H10.5361V13.1867H52.3038V14.0892Z" fill="#CDCCCA"/>
<path d="M54.7248 23.7823H12.9604V23.1642H54.7248V23.7823Z" fill="#92E0EA"/>
<path d="M55.9015 29.3424H14.1355V28.7243H55.9015V29.3424Z" fill="#92E0EA"/>
<path d="M57.0768 34.9011H15.3108V34.2846H57.0768V34.9011Z" fill="#92E0EA"/>
<path d="M58.2555 40.6025H16.4895V39.986H58.2555V40.6025Z" fill="#92E0EA"/>
<path d="M59.4288 46.59H17.6611V45.9735H59.4288V46.59Z" fill="#92E0EA"/>
<path d="M0.420836 80.3856H60.9154L60.6162 79.5767H0L0.420836 80.3856Z" fill="white"/>
<path d="M64.2445 62.3659C64.2445 68.0344 59.6494 72.6294 53.9809 72.6294C48.314 72.6294 43.719 68.0344 43.719 62.3659C43.719 56.6973 48.314 52.1023 53.9809 52.1023C59.6494 52.1023 64.2445 56.6973 64.2445 62.3659Z" fill="#F77B55"/>
<path d="M62.2682 62.3658C62.2682 66.9411 58.5577 70.6516 53.9824 70.6516C49.4071 70.6516 45.6982 66.9411 45.6982 62.3658C45.6982 57.7905 49.4071 54.08 53.9824 54.08C58.5577 54.08 62.2682 57.7905 62.2682 62.3658Z" fill="#FF916E"/>
<path d="M60.8317 62.3656C60.8317 66.1484 57.7656 69.2145 53.9827 69.2145C50.1999 69.2145 47.1338 66.1484 47.1338 62.3656C47.1338 58.5827 50.1999 55.5166 53.9827 55.5166C57.7656 55.5166 60.8317 58.5827 60.8317 62.3656Z" fill="#F77B55"/>
</svg>
