<svg width="94" height="90" viewBox="0 0 94 90" fill="none" xmlns="http://www.w3.org/2000/svg">
<path d="M69.3037 1.68708C67.5888 0.965145 62.5521 0.0201855 60.2474 0.00084877C57.9441 0.0201855 52.9074 0.965145 51.1912 1.68708C43.2134 5.04667 43.1162 11.5712 43.1162 21.7338H60.2474H77.38C77.38 11.5712 77.2828 5.04667 69.3037 1.68708Z" fill="#363536"/>
<path d="M67.07 42.0988H53.7879C53.7879 42.0988 55.8169 53.2708 46.1562 62.5077L59.7912 78.4574H61.068L74.7016 62.5077C65.0409 53.2708 67.07 42.0988 67.07 42.0988Z" fill="#FAB76E"/>
<path d="M67.0731 42.0987H53.791C53.791 42.0987 54.7749 47.5417 52.0881 53.9695C57.6348 51.8746 62.0564 47.454 66.936 43.3944C66.9879 42.5719 67.0731 42.0987 67.0731 42.0987Z" fill="#E7A24D"/>
<path d="M53.0729 51.132C52.0903 54.6528 50.0946 58.7408 46.1562 62.5077L59.7912 78.4574H61.068L74.7016 62.5077C70.7633 58.7408 68.7689 54.6528 67.7863 51.132L60.4955 55.0318L53.0729 51.132Z" fill="#EFF0EF"/>
<path d="M53.0742 51.1321C52.0916 54.6529 59.4969 60.1782 59.4969 60.1782L55.7956 78.4575L60.4302 81.1519L65.0542 78.4575L61.5725 60.2775C61.5725 60.2775 68.7701 54.6529 67.7876 51.1321L60.4968 55.0319L53.0742 51.1321Z" fill="#302F2F"/>
<path d="M77.9233 20.9847C77.412 19.7046 76.516 20.3659 75.8196 21.209C76.0194 11.2759 70.6019 6.23139 70.6019 6.23139H60.4299H50.258C50.258 6.23139 44.8058 11.2643 44.9789 21.1355C44.2919 20.3298 43.4345 19.742 42.9366 20.9847C42.0126 23.2936 44.1841 26.4586 43.7687 29.6647C43.4878 31.8344 45.2545 31.6166 46.3729 31.0094C46.7936 32.6505 47.4194 34.5855 48.4246 36.8493C50.5522 41.6386 56.6554 45.9999 60.4006 45.9999C64.1459 45.9999 70.1598 41.6038 72.3753 36.8493C73.3938 34.6642 74.0302 32.849 74.435 30.9836C75.5494 31.6101 77.3774 31.8679 77.0911 29.6647C76.6758 26.4586 78.8486 23.2936 77.9233 20.9847Z" fill="#FAB76E"/>
<path d="M68.0456 51.9946C67.9724 51.7639 67.9031 51.5357 67.8379 51.3088L68.0536 51.4313C68.0522 51.6066 68.0509 51.7948 68.0456 51.9946Z" fill="#D3D2D1"/>
<path d="M60.4963 55.0319L67.2838 50.9967L67.6513 51.2043L60.4963 55.0319Z" fill="#CC975B"/>
<path d="M64.4865 62.3429L62.508 59.4951C64.384 57.8617 68.3755 54.0161 67.827 51.3037L67.8363 51.3088C67.9016 51.5357 67.9708 51.7639 68.044 51.9947C68.0107 53.5056 67.8523 55.7075 67.345 58.4174L64.4865 62.3429ZM56.5074 62.3429L53.5157 58.2356C53.3346 57.2868 53.1922 56.4011 53.0803 55.5838L56.5074 60.2905L57.711 58.7036C58.0145 58.9717 58.2954 59.2115 58.5404 59.4165L56.5074 62.3429Z" fill="#C2C2C0"/>
<path d="M62.5068 59.4951L60.495 56.6009L58.5392 59.4165C58.2942 59.2115 58.0133 58.9717 57.7097 58.7036L60.495 55.032L67.65 51.2044L67.8257 51.3037C68.3743 54.0161 64.3827 57.8617 62.5068 59.4951Z" fill="#282726"/>
<path d="M60.4963 55.0319L64.4866 60.2904L70.868 51.1334L67.2839 48.9444L60.4963 55.0319Z" fill="#EFF0EF"/>
<path d="M60.4966 55.0319L56.5077 60.2904L50.0051 51.3603L53.5773 48.9444L60.4966 55.0319Z" fill="#EFF0EF"/>
<path d="M90.5729 58.8787C87.9873 54.3202 68.2372 49.7178 68.2372 49.7178L68.2412 49.7887L67.9936 49.7178C67.9936 49.7411 68.6433 56.049 65.6024 65.0642C64.5945 68.0564 63.4615 71.0898 62.4762 73.6256C62.0888 74.6234 60.4964 78.7771 60.4964 78.7771C60.4964 78.7771 58.5446 74.6234 58.1558 73.6256C57.1706 71.0898 56.0375 68.0564 55.0283 65.0642C51.9887 56.049 52.6385 49.7411 52.6398 49.7178L52.3908 49.7887L52.3935 49.7178C52.3935 49.7178 32.646 54.3202 30.0591 58.8787C28.7064 61.2624 27.4149 73.7429 26.6321 82.8303H60.3167H94C93.2171 73.7429 91.9256 61.2624 90.5729 58.8787Z" fill="#46494E"/>
<path d="M71.7083 58.2034L74.2206 51.1619L68.2972 49.4731C68.2972 49.4731 68.67 55.5876 65.9486 64.3269C63.9049 70.894 60.8746 77.5706 60.4539 78.5182C60.0332 77.5706 57.0921 70.894 55.0484 64.3269C52.3283 55.5876 52.6998 49.4731 52.6998 49.4731L46.7763 51.1619L49.2874 58.2034L45.0002 60.2067L60.4779 79.1202L75.9954 60.2067L71.7083 58.2034Z" fill="#717374"/>
<path d="M48.5518 5.94022C48.5518 5.94022 59.9592 26.6676 77.8693 5.13578C77.8693 5.13578 62.1721 -6.93864 48.5518 5.94022Z" fill="#363536"/>
<path d="M48.2869 29.398C47.5506 23.2692 46.9262 8.92971 56.4045 4.93069L53.5034 3.57189C53.5034 3.57189 45.025 5.23234 44.2461 17.9101L46.5201 31.2917H46.5401C47.5932 31.2917 48.4081 30.41 48.2869 29.398Z" fill="#363536"/>
<path d="M74.2044 31.2917H74.2976L76.557 17.9939C75.7781 5.31614 67.2997 3.65569 67.2997 3.65569L64.3999 5.01448C73.8689 9.01222 73.2538 23.3298 72.5188 29.4689C72.4017 30.4435 73.1899 31.2917 74.2044 31.2917Z" fill="#363536"/>
<path d="M40.2966 53.2322C42.5361 52.4471 44.8168 51.7509 46.7859 51.1901V51.1914C44.8168 51.7509 42.5361 52.4471 40.2966 53.2322Z" fill="#D7D8D6"/>
<path d="M51.7494 82.8303H40.2966V53.2321C42.5361 52.447 44.8168 51.7509 46.7859 51.1914L49.2863 58.2032L44.9992 60.2066L51.7494 68.4547V82.8303Z" fill="#3A3C41"/>
<path d="M51.7505 68.4548L45.0002 60.2067L49.2874 58.2033L46.787 51.1915V51.1902L46.7763 51.1618L48.7322 50.6036L51.7505 53.4759V68.4548Z" fill="#5C5F60"/>
<path d="M40.2985 51.4531L31.165 42.7589V51.4531H40.2985Z" fill="#CECDCB"/>
<path d="M31.1629 42.7588H0V89.5237H40.2964V51.453H31.1629V42.7588Z" fill="#EBECEA"/>
<path d="M31.165 51.4531H40.2985L31.165 42.7589V51.4531Z" fill="#A5A5A4"/>
<path d="M36.1571 68.1647H4.97021V66.1419H36.1571V68.1647Z" fill="#B4B6B4"/>
<path d="M36.1571 71.8726H4.97021V69.8498H36.1571V71.8726Z" fill="#B4B6B4"/>
<path d="M36.1571 75.5801H4.97021V73.5574H36.1571V75.5801Z" fill="#B4B6B4"/>
<path d="M36.1571 79.2878H4.97021V77.2651H36.1571V79.2878Z" fill="#B4B6B4"/>
<path d="M36.1571 82.9954H4.97021V80.9726H36.1571V82.9954Z" fill="#B4B6B4"/>
<path d="M36.1571 57.1759H4.97021V55.1532H36.1571V57.1759Z" fill="#B4B6B4"/>
<path d="M36.1571 60.8835H4.97021V58.8608H36.1571V60.8835Z" fill="#B4B6B4"/>
<path d="M36.1571 64.5924H4.97021V62.5684H36.1571V64.5924Z" fill="#B4B6B4"/>
<path d="M14.8926 53.1304C14.8873 53.1304 14.8833 53.1304 14.878 53.1304H14.8434C13.8928 53.1201 13.1339 52.228 13.1498 51.136L13.1645 50.0815L13.1978 44.2699H12.805L12.7757 50.066L12.7704 50.4863C12.7544 51.573 11.9769 52.4471 11.0316 52.4471C11.0276 52.4471 11.0222 52.4471 11.0169 52.4471L10.9836 52.4458C10.0317 52.4368 9.27277 51.5447 9.29008 50.4528L9.30606 49.152L9.3247 44.2699H9.01447L9.00916 48.0768C9.00383 48.3681 8.93193 48.6363 8.81743 48.8748C8.56046 49.4085 8.07051 49.7746 7.50466 49.7746C7.50067 49.7746 7.49668 49.7746 7.49268 49.7746L7.46338 49.7734C6.63924 49.7656 5.9842 48.9934 5.99751 48.0497C5.99751 48.0497 5.99751 44.5419 5.99751 44.3369V44.3266C5.99885 43.7181 6.13198 43.1689 6.41025 42.7589H8.96121C9.07438 42.9214 9.15827 43.1109 9.18623 43.3236C9.18357 43.1921 9.19155 42.9858 9.24613 42.7589H12.8276C12.8622 42.8685 12.9128 42.9665 12.9301 43.0877C12.9288 42.9897 12.9341 42.8775 12.9448 42.7589H16.7619C16.7739 42.8647 16.7899 42.9626 16.7966 43.0799L16.8019 42.7589H20.5525C20.5831 43.3081 20.5498 43.8805 20.5511 44.3266V44.3369C20.5511 44.4787 20.4819 50.4863 20.4819 50.4863C20.4646 51.573 19.6884 52.4471 18.7431 52.4471C18.7391 52.4471 18.7338 52.4471 18.7284 52.4471L18.6938 52.4458C17.7432 52.4368 16.9843 51.5447 17.0016 50.4528L17.0149 49.2603L17.0349 44.2699H16.6781L16.6541 49.4253L16.6315 51.1695C16.6155 52.2563 15.8379 53.1304 14.8926 53.1304Z" fill="#C1C3C1"/>
<path d="M19.524 43.423C19.5214 42.1957 19.7916 40.0079 18.2033 40.0079C17.2007 39.9512 16.7574 40.0595 16.4591 40.1936C15.5924 40.5855 15.7854 42.5682 15.7854 42.5682C15.8027 40.5455 15.0625 40.2026 13.8682 40.1781C11.5023 40.1265 11.9337 42.5682 11.9337 42.5682C11.9337 41.3641 11.1908 40.6242 10.1376 40.6229C7.85824 40.6203 8.16846 42.5682 8.16846 42.5682C8.16846 41.9675 7.73974 41.5072 7.31902 41.3667C6.64932 41.1463 5.94634 41.2907 5.66009 41.5356C5.18478 41.9443 4.97308 42.6366 4.97041 43.423V43.4333C4.97041 43.637 4.97041 47.1448 4.97041 47.1448C4.9571 48.0898 5.61215 48.862 6.43496 48.8697H6.46558C7.03676 48.8762 7.53072 48.5075 7.79034 47.9699C7.90351 47.7327 7.97673 47.4645 7.98206 47.1732L7.98739 43.3649H8.2976L8.27896 48.2471L8.26165 49.5478C8.24567 50.641 9.00459 51.5332 9.95521 51.5422H9.98981C10.9418 51.5525 11.7273 50.6733 11.7433 49.5813L11.7486 49.1611L11.7779 43.3649H12.1707L12.1374 49.1778L12.1227 50.2311C12.1068 51.3243 12.8657 52.2164 13.8163 52.2254L13.8522 52.2267C14.8029 52.2358 15.5871 51.3565 15.6044 50.2659L15.627 48.5216L15.651 43.3649H16.0078L15.9878 48.3566L15.9732 49.5478C15.9572 50.641 16.7161 51.5332 17.6667 51.5422H17.7013C18.6533 51.5525 19.4375 50.6733 19.4548 49.5813C19.4548 49.5813 19.524 43.5751 19.524 43.4333V43.423Z" fill="#FAB76E"/>
</svg>
