<svg width="109" height="83" viewBox="0 0 109 83" fill="none" xmlns="http://www.w3.org/2000/svg">
<path d="M7.32019 83L1.71466 81.647L0 75.6786L44.066 31.6125L51.3875 38.934L7.32019 83Z" fill="#2C353D"/>
<path d="M47.7135 44.5398L38.4609 35.2855L47.3504 26.3942L56.6029 35.6486L47.7135 44.5398Z" fill="#353F49"/>
<path d="M62.2242 48.6095L34.3926 20.7778L49.0806 6.08794L76.9123 33.9196L62.2242 48.6095Z" fill="#2C353D"/>
<path d="M36.7675 26.634L28.3008 18.1673L46.4698 5.34058e-05L54.9348 8.465L36.7675 26.634Z" fill="#2C353D"/>
<path d="M64.8302 54.6969L56.3652 46.232L74.5325 28.0647L82.9992 36.5296L64.8302 54.6969Z" fill="#2C353D"/>
<path d="M65.4968 37.1947L45.7832 17.4793L52.0642 11.1984L71.7777 30.9119L65.4968 37.1947Z" fill="#353F49"/>
<path d="M62.5954 25.9838L51.1914 14.5798L51.9664 13.8066L63.3686 25.2106L62.5954 25.9838Z" fill="white"/>
<path d="M41.3356 35.8419L40.6582 35.1645L43.8484 31.9762L44.524 32.6518L41.3356 35.8419Z" fill="white"/>
<path d="M36.7957 21.2491L31.0098 15.4613L46.471 9.53674e-05L52.257 5.78609L36.7957 21.2491Z" fill="#353F49"/>
<path d="M65.0131 49.4675L60.7734 45.226L76.2347 29.7648L80.4743 34.0045L65.0131 49.4675Z" fill="#353F49"/>
<path d="M41.3376 9.55457L40.709 8.9277L46.943 2.69552L47.5698 3.32238L41.3376 9.55457Z" fill="white"/>
<path d="M72.6482 36.7104L72.0684 36.1306L76.2231 31.9758L76.803 32.5557L72.6482 36.7104Z" fill="white"/>
<path d="M0 75.679L1.71466 81.6474L3.58323 82.099L42.4475 43.2337L37.4455 38.2335L0 75.679Z" fill="#353F49"/>
<path d="M98.3149 65.7616H62.5332V77.2433H98.3149V65.7616Z" fill="#FECA5C"/>
<path d="M102.141 76.6956H58.707V82.8538H102.141V76.6956Z" fill="#F9BB4E"/>
<path d="M79.8796 52.99L81.0032 48.8136L82.1268 52.99L86.3033 54.1136L82.1268 55.239L81.0032 59.4137L79.8796 55.239L75.7031 54.1136L79.8796 52.99Z" fill="#92E0EA"/>
<path d="M87.9285 69.3148H64.9688V67.9473H87.9285V69.3148Z" fill="white"/>
<path d="M107.675 62.6254L97.248 59.3358L97.5768 58.2917L108.004 61.5831L107.675 62.6254Z" fill="#2C353D"/>
<path d="M105.334 45.0344L95.5579 49.928L95.0684 48.9507L104.847 44.0571L105.334 45.0344Z" fill="#2C353D"/>
<path d="M94.1856 32.1764L89.245 41.9293L88.2695 41.4362L93.2119 31.6833L94.1856 32.1764Z" fill="#2C353D"/>
</svg>
