<svg width="57" height="94" viewBox="0 0 57 94" fill="none" xmlns="http://www.w3.org/2000/svg">
<path d="M56.6627 75.4323H0V93.959H56.6627V75.4323Z" fill="#F77B55"/>
<path d="M56.6627 20.118H0V75.5205H56.6627V20.118Z" fill="#FF916E"/>
<path d="M56.6607 77.5906H3.41553V91.6219H56.6607V77.5906Z" fill="#F2F2F2"/>
<path d="M56.6607 80.3789H3.41553V81.5471H56.6607V80.3789Z" fill="#CDCCCA"/>
<path d="M56.6607 87.7529H3.41553V88.9227H56.6607V87.7529Z" fill="#CDCCCA"/>
<path d="M56.6607 84.0662H3.41553V85.2344H56.6607V84.0662Z" fill="#CDCCCA"/>
<path d="M54.0536 39.9956L37.2261 7.27591H15.4991L8.52148 22.3883V28.8698V40.9403V58.7933H15.6608V40.6867H17.2633V63.2934H24.7323V40.9403H26.0052V67.8744H33.1445V40.9403H34.747V64.2984H42.2715V42.3511V34.4192L47.6672 42.6031L54.0536 39.9956Z" fill="#F77B55"/>
<path d="M4.13495 77.5906H2.06641V91.6219H4.13495V77.5906Z" fill="#353F49"/>
<path d="M52.8892 37.8207L36.7972 4.57792H16.3447L9.77759 19.6887V26.1718V38.2423V56.3474H16.4984V38.2423H18.0058V60.5939H24.7267V38.2423H26.2341V65.1764H32.955V38.2423H34.4624V61.6004H41.1832V38.2423V30.3089L47.3096 39.875L52.8892 37.8207Z" fill="#FECA5C"/>
<path d="M15.5466 50.6376H10.7041V55.0156H15.5466V50.6376Z" fill="white"/>
<path d="M23.7988 54.5942H18.9563V58.9739H23.7988V54.5942Z" fill="white"/>
<path d="M23.7988 54.8049H18.9563V59.1846H23.7988V54.8049Z" fill="white"/>
<path d="M29.1401 4.57792V65.1764H32.9555V38.2423H34.4629V61.6004H41.1838V38.2423V30.3089L47.3102 39.875L52.8897 37.8207L36.7978 4.57792H29.1401Z" fill="#F9BB4E"/>
<path d="M40.3014 55.9844H35.4604V60.3624H40.3014V55.9844Z" fill="white"/>
<path d="M31.9635 59.4365H27.1226V63.8146H31.9635V59.4365Z" fill="white"/>
<path d="M52.2243 36.3972L50.1937 32.2379L47.4277 33.2191L49.4662 37.2976L52.2243 36.3972Z" fill="white"/>
<path d="M11.6931 -6.96182e-05H41.1935V9.23474H11.6931V-6.96182e-05Z" fill="#353F49"/>
<path d="M26.9832 -6.96182e-05H41.1936V9.23474H26.9832V-6.96182e-05Z" fill="#2C353D"/>
</svg>
