<svg width="86" height="94" viewBox="0 0 86 94" fill="none" xmlns="http://www.w3.org/2000/svg">
<path d="M43.3579 77.4432L46.8876 79.4825L50.3696 81.5703V85.6974V89.873L46.8876 91.9122L43.3579 94.0001L39.8283 91.9122L36.2986 89.873V85.6974V81.5703L39.8283 79.4825L43.3579 77.4432Z" fill="#2B2A29"/>
<path d="M43.3576 77.7832L46.7442 79.7739L50.0831 81.7646V85.6975V89.6789L46.7442 91.621L43.3576 93.6117L39.9711 91.621L36.5845 89.6789V85.6975V81.7646L39.9711 79.7739L43.3576 77.7832Z" fill="#017663"/>
<path d="M43.3579 77.4432V77.7831L36.5848 81.7645V89.6788L36.2986 89.873V81.5703L43.3579 77.4432Z" fill="#1FEBE0"/>
<path d="M61.8648 67.3927L65.3468 69.4805L68.8764 71.5198V75.6954V79.8225L65.3468 81.8617L61.8648 83.9495L58.3351 81.8617L54.8054 79.8225V75.6954V71.5198L58.3351 69.4805L61.8648 67.3927Z" fill="#2B2A29"/>
<path d="M61.8647 67.781L65.2036 69.7232L68.5902 71.7139V75.6953V79.6281L65.2036 81.6188L61.8647 83.6095L58.4781 81.6188L55.0916 79.6281V75.6953V71.7139L58.4781 69.7232L61.8647 67.781Z" fill="#017663"/>
<path d="M61.8648 67.3927V67.7811L55.0916 71.714V79.6282L54.8054 79.8225V71.5198L61.8648 67.3927Z" fill="#1FEBE0"/>
<path d="M78.9406 58.2644L82.4703 60.3522L86 62.44V66.5185V70.6942L82.4703 72.7334L78.9406 74.7727L75.4109 72.7334L71.929 70.6942V66.5185V62.44L75.4109 60.3522L78.9406 58.2644Z" fill="#2B2A29"/>
<path d="M78.9408 58.6045L82.3274 60.5952L85.714 62.5859V66.5187V70.5002L82.3274 72.4909L78.9408 74.433L75.5542 72.4909L72.2153 70.5002V66.5187V62.5859L75.5542 60.5952L78.9408 58.6045Z" fill="#007B67"/>
<path d="M78.9406 58.2644V58.6043L72.2151 62.5857V70.4999L71.929 70.6942V62.44L78.9406 58.2644Z" fill="#1FEBE0"/>
<path d="M7.01165 58.2644L10.5413 60.3522L14.071 62.44V66.5185V70.6942L10.5413 72.7334L7.01165 74.7727L3.48198 72.7334L0 70.6942V66.5185V62.44L3.48198 60.3522L7.01165 58.2644Z" fill="#2B2A29"/>
<path d="M7.01184 58.6045L10.3507 60.5952L13.7373 62.5859V66.5187V70.5002L10.3507 72.4909L7.01184 74.433L3.62526 72.4909L0.286377 70.5002V66.5187V62.5859L3.62526 60.5952L7.01184 58.6045Z" fill="#007E6B"/>
<path d="M7.01165 58.2644V58.6043L0.28619 62.5857V70.4999L0 70.6942V62.44L7.01165 58.2644Z" fill="#1FEBE0"/>
<path d="M25.4709 67.4897L29.0006 69.529L32.5302 71.6168V75.7924V79.8709L29.0006 81.9588L25.4709 84.0466L21.9412 81.9588L18.4592 79.8709V75.7924V71.6168L21.9412 69.529L25.4709 67.4897Z" fill="#2B2A29"/>
<path d="M25.4708 67.8784L28.8574 69.8206L32.244 71.8113V75.7927V79.7255L28.8574 81.6677L25.4708 83.6584L22.0842 81.6677L18.7454 79.7255V75.7927V71.8113L22.0842 69.8206L25.4708 67.8784Z" fill="#017663"/>
<path d="M25.4709 67.4897V67.8782L18.7454 71.811V79.7253L18.4592 79.8709V71.6168L25.4709 67.4897Z" fill="#1FEBE0"/>
<path d="M43.5486 56.8566L46.5536 58.6531L49.654 60.4495V64.0425V67.684L46.5536 69.4805L43.5486 71.277L40.4482 69.4805L37.3955 67.684V64.0425V60.4495L40.4482 58.6531L43.5486 56.8566Z" fill="#2B2A29"/>
<path d="M43.5484 57.1478L46.458 58.8958L49.3676 60.5951V64.0425V67.4898L46.458 69.2377L43.5484 70.9371L40.5911 69.2377L37.6338 67.4898V64.0425V60.5951L40.5911 58.8958L43.5484 57.1478Z" fill="#01806D"/>
<path d="M43.5486 56.8566V57.1479L37.634 60.5952V67.4898L37.3955 67.684V60.4495L43.5486 56.8566Z" fill="#1FEBE0"/>
<path d="M62.0075 46.6117L64.9171 48.3111L67.8267 50.059V53.5063V56.9051L64.9171 58.6045L62.0075 60.3524L59.0502 58.6045L56.1406 56.9051V53.5063V50.059L59.0502 48.3111L62.0075 46.6117Z" fill="#2B2A29"/>
<path d="M62.0076 46.9028L64.7741 48.5537L67.5883 50.2045V53.5061V56.7592L64.7741 58.3615L62.0076 60.0123L59.1933 58.3615L56.3792 56.7592V53.5061V50.2045L59.1933 48.5537L62.0076 46.9028Z" fill="#019682"/>
<path d="M62.0075 46.6117V46.903L56.3791 50.2047V56.7594L56.1406 56.9051V50.059L62.0075 46.6117Z" fill="#1FEBE0"/>
<path d="M79.1315 38.8915L82.0887 40.5909L84.9983 42.2902V45.7376V49.1849L82.0887 50.8842L79.1315 52.6322L76.2218 50.8842L73.3123 49.1849V45.7376V42.2902L76.2218 40.5909L79.1315 38.8915Z" fill="#2B2A29"/>
<path d="M79.1314 39.183L81.9456 40.7853L84.7598 42.4361V45.7377V49.0394L81.9456 50.6902L79.1314 52.2925L76.3649 50.6902L73.5984 49.0394V45.7377V42.4361L76.3649 40.7853L79.1314 39.183Z" fill="#00A795"/>
<path d="M79.1315 38.8915V39.1828L73.5984 42.4359V49.0392L73.3123 49.1849V42.2902L79.1315 38.8915Z" fill="#1FEBE0"/>
<path d="M7.44102 38.8915V39.1828L1.86032 42.4359V49.0392L1.62183 49.1849V42.2902L7.44102 38.8915Z" fill="#1FEBE0"/>
<path d="M7.01166 38.9888L10.1598 40.8338L13.3078 42.6789V46.3689V50.059L10.1598 51.9041L7.01166 53.7005L3.86358 51.9041L0.763184 50.059V46.3689V42.6789L3.86358 40.8338L7.01166 38.9888Z" fill="#2B2A29"/>
<path d="M7.0117 39.3286L10.0167 41.0765L13.0217 42.8245V46.3689V49.8648L10.0167 51.6613L7.0117 53.4092L4.0067 51.6613L1.00171 49.8648V46.3689V42.8245L4.0067 41.0765L7.0117 39.3286Z" fill="#01A38E"/>
<path d="M7.01166 38.9888V39.3286L1.00168 42.8245V49.8648L0.763184 50.059V42.6789L7.01166 38.9888Z" fill="#1FEBE0"/>
<path d="M7.01171 22.8202L9.63512 24.3739L12.3062 25.9276V29.0351V32.0939L9.63512 33.6962L7.01171 35.2499L4.3883 33.6962L1.76489 32.0939V29.0351V25.9276L4.3883 24.3739L7.01171 22.8202Z" fill="#2B2A29"/>
<path d="M7.0115 23.1117L9.53951 24.5683L12.0675 26.0249V29.0352V31.997L9.53951 33.5022L7.0115 34.9588L4.48349 33.5022L2.00317 31.997V29.0352V26.0249L4.48349 24.5683L7.0115 23.1117Z" fill="#03BDAF"/>
<path d="M7.01171 22.8202V23.1115L2.00338 26.0247V31.9968L1.76489 32.0939V25.9276L7.01171 22.8202Z" fill="#1FEBE0"/>
<path d="M78.9407 22.8202L81.5641 24.3739L84.2352 25.9276V29.0351V32.0939L81.5641 33.6962L78.9407 35.2499L76.3173 33.6962L73.6938 32.0939V29.0351V25.9276L76.3173 24.3739L78.9407 22.8202Z" fill="#2B2A29"/>
<path d="M78.9407 23.1117L81.4687 24.5683L83.9967 26.0249V29.0352V31.997L81.4687 33.5022L78.9407 34.9588L76.4127 33.5022L73.9324 31.997V29.0352V26.0249L76.4127 24.5683L78.9407 23.1117Z" fill="#06C9BB"/>
<path d="M78.9407 22.8202V23.1115L73.9323 26.0247V31.9968L73.6938 32.0939V25.9276L78.9407 22.8202Z" fill="#1FEBE0"/>
<path d="M61.9123 27.7729L64.3449 29.181L66.7775 30.5891V33.4537V36.3184L64.3449 37.7265L61.9123 39.1345L59.4796 37.7265L57.0947 36.3184V33.4537V30.5891L59.4796 29.181L61.9123 27.7729Z" fill="#2B2A29"/>
<path d="M61.9124 28.0156L64.2496 29.3751L66.5391 30.7346V33.4536V36.1727L64.2496 37.5322L61.9124 38.8917L59.6229 37.5322L57.2856 36.1727V33.4536V30.7346L59.6229 29.3751L61.9124 28.0156Z" fill="#04C4B5"/>
<path d="M61.9123 27.7729V28.0157L57.2855 30.7347V36.1727L57.0947 36.3184V30.5891L61.9123 27.7729Z" fill="#1FEBE0"/>
<path d="M25.28 27.7729L27.6649 29.181L30.0976 30.5891V33.4537V36.3184L27.6649 37.7265L25.28 39.1345L22.8474 37.7265L20.4148 36.3184V33.4537V30.5891L22.8474 29.181L25.28 27.7729Z" fill="#2B2A29"/>
<path d="M25.2801 28.0156L27.5696 29.3751L29.9068 30.7346V33.4536V36.1727L27.5696 37.5322L25.2801 38.8917L22.9428 37.5322L20.6533 36.1727V33.4536V30.7346L22.9428 29.3751L25.2801 28.0156Z" fill="#02B4A4"/>
<path d="M25.28 27.7729V28.0157L20.6533 30.7347V36.1727L20.4148 36.3184V30.5891L25.28 27.7729Z" fill="#1FEBE0"/>
<path d="M43.5484 36.124L46.3626 37.8234L49.2722 39.5228V42.873V46.2232L46.3626 47.9226L43.5484 49.6705L40.6388 47.9226L37.7769 46.2232V42.873V39.5228L40.6388 37.8234L43.5484 36.124Z" fill="#2B2A29"/>
<path d="M43.5484 36.4153L46.2672 38.0661L48.986 39.6684V42.8729V46.0775L46.2672 47.7283L43.5484 49.3306L40.7819 47.7283L38.0154 46.0775V42.8729V39.6684L40.7819 38.0661L43.5484 36.4153Z" fill="#01AC9A"/>
<path d="M43.5484 36.124V36.4153L38.0153 39.6684V46.0775L37.7769 46.2232V39.5228L43.5484 36.124Z" fill="#1FEBE0"/>
<path d="M43.5484 17.2365L46.1241 18.7902L48.7952 20.3439V23.4028V26.5588L46.1241 28.0639L43.5484 29.6662L40.8773 28.0639L38.2539 26.5588V23.4028V20.3439L40.8773 18.7902L43.5484 17.2365Z" fill="#2B2A29"/>
<path d="M43.5485 17.4795L46.0288 18.9847L48.5568 20.4898V23.403V26.4134L46.0288 27.87L43.5485 29.3752L40.9727 27.87L38.4924 26.4134V23.403V20.4898L40.9727 18.9847L43.5485 17.4795Z" fill="#03C6B6"/>
<path d="M43.5484 17.2365V17.4792L38.4924 20.4895V26.4131L38.2539 26.5588V20.3439L43.5484 17.2365Z" fill="#1FEBE0"/>
<path d="M43.5485 0L45.7903 1.31095L48.0799 2.67045V5.34091V8.01136L45.7903 9.41942L43.5485 10.7304L41.2113 9.41942L38.9695 8.01136V5.34091V2.67045L41.2113 1.31095L43.5485 0Z" fill="#2B2A29"/>
<path d="M43.5486 0.242676L45.7428 1.50507L47.8892 2.76747V5.34082V7.96272L45.7428 9.22511L43.5486 10.4875L41.3545 9.22511L39.1604 7.96272V5.34082V2.76747L41.3545 1.50507L43.5486 0.242676Z" fill="#06CEC1"/>
<path d="M43.5485 0V0.242769L39.1603 2.76756V7.96281L38.9695 8.01136V2.67045L43.5485 0Z" fill="#1FEBE0"/>
<path d="M25.423 9.1283L27.6649 10.4392L30.0021 11.8473V14.4692V17.1882L27.6649 18.4992L25.423 19.9072L23.0858 18.4992L20.844 17.1882V14.4692V11.8473L23.0858 10.4392L25.423 9.1283Z" fill="#2B2A29"/>
<path d="M25.4234 9.37097L27.6175 10.6334L29.764 11.9443V14.4691V17.091L27.6175 18.3534L25.4234 19.6644L23.2293 18.3534L21.0352 17.091V14.4691V11.9443L23.2293 10.6334L25.4234 9.37097Z" fill="#04C3B3"/>
<path d="M25.423 9.1283V9.37106L21.0348 11.9444V17.0911L20.844 17.1882V11.8473L25.423 9.1283Z" fill="#1FEBE0"/>
<path d="M61.8647 9.61365L64.1065 10.9246L66.4437 12.2355V14.9546V17.625L64.1065 18.936L61.8647 20.344L59.5752 18.936L57.2856 17.625V14.9546V12.2355L59.5752 10.9246L61.8647 9.61365Z" fill="#2B2A29"/>
<path d="M61.8646 9.80786L64.0587 11.0703L66.2051 12.3812V14.9546V17.4793L64.0587 18.7903L61.8646 20.1012L59.6704 18.7903L57.4763 17.4793V14.9546V12.3812L59.6704 11.0703L61.8646 9.80786Z" fill="#08D4C9"/>
<path d="M61.8647 9.61365V9.80786L57.4764 12.3812V17.4793L57.2856 17.625V12.2355L61.8647 9.61365Z" fill="#1FEBE0"/>
<path d="M25.28 46.6117L28.1896 48.3111L31.0992 50.059V53.5063V56.9051L28.1896 58.6045L25.28 60.3524L22.3227 58.6045L19.4131 56.9051V53.5063V50.059L22.3227 48.3111L25.28 46.6117Z" fill="#2B2A29"/>
<path d="M25.2799 46.9028L28.0464 48.5537L30.8606 50.2045V53.5061V56.7592L28.0464 58.3615L25.2799 60.0123L22.4657 58.3615L19.6992 56.7592V53.5061V50.2045L22.4657 48.5537L25.2799 46.9028Z" fill="#009079"/>
<path d="M25.28 46.6117V46.903L19.6993 50.2047V56.7594L19.4131 56.9051V50.059L25.28 46.6117Z" fill="#1FEBE0"/>
</svg>
